<?xml version="1.0" encoding="utf-8"?>
<!-- Generator: Adobe Illustrator 22.1.0, SVG Export Plug-In . SVG Version: 6.00 Build 0)  -->
<svg version="1.2" baseProfile="tiny" id="Ebene_1" xmlns="http://www.w3.org/2000/svg" xmlns:xlink="http://www.w3.org/1999/xlink"
	 x="0px" y="0px" width="355.8px" height="52.8px" viewBox="0 0 355.8 52.8" xml:space="preserve">
<path fill="#002B4B" d="M47.7,41.6c1.6-2.2,2.9-4.6,3.8-7.3c0.9-2.6,1.3-5.4,1.3-8.3c0-3.6-0.6-6.9-1.9-10.1
	c-1.3-3.2-3.1-5.9-5.4-8.3c-2.3-2.4-5.1-4.2-8.3-5.6C33.9,0.7,30.3,0,26.5,0C22.6,0,19,0.7,15.8,2.1c-3.2,1.4-6,3.3-8.4,5.7
	c-2.4,2.4-4.2,5.2-5.5,8.3C0.6,19.2,0,22.6,0,26.2c0,3.6,0.6,6.9,1.9,10.1c1.3,3.2,3.1,5.9,5.4,8.3c2.3,2.4,5.1,4.2,8.3,5.6
	c3.2,1.4,6.8,2.1,10.7,2.1c3,0,5.7-0.4,8.3-1.3c2.5-0.8,4.9-2,7.1-3.5l6.1,5.4l5.7-6.3L47.7,41.6z M42.8,31.3
	c-0.4,1.6-1.1,3.1-1.9,4.4l-8.7-7.9l-5.7,6.5l8.7,7.4c-1.2,0.8-2.5,1.4-4,1.8c-1.4,0.4-3,0.6-4.7,0.6c-2.5,0-4.8-0.5-6.9-1.4
	c-2.1-1-3.9-2.3-5.4-3.9c-1.5-1.6-2.7-3.5-3.5-5.7c-0.8-2.2-1.3-4.5-1.3-7s0.4-4.8,1.3-7c0.8-2.2,2-4.1,3.5-5.7
	c1.5-1.6,3.3-2.9,5.4-3.8c2.1-0.9,4.4-1.4,6.9-1.4c2.5,0,4.8,0.5,6.9,1.4c2.1,1,3.9,2.3,5.4,3.9c1.5,1.6,2.7,3.5,3.5,5.7
	c0.8,2.2,1.3,4.5,1.3,7C43.5,27.9,43.3,29.6,42.8,31.3z"/>
<path fill="#002B4B" d="M99.9,47.1c-1.4,1-2.8,1.9-4.4,2.7c-1.6,0.8-3.3,1.3-5.2,1.7c-1.9,0.4-4,0.6-6.2,0.6c-3.6,0-6.9-0.7-9.9-1.9
	c-3-1.3-5.6-3.1-7.8-5.3c-2.2-2.2-3.9-4.9-5.2-8c-1.3-3.1-1.9-6.4-1.9-9.9c0-3.5,0.6-6.7,1.8-9.8c1.2-3.1,3-5.7,5.2-8
	c2.2-2.3,4.9-4.1,7.9-5.4c3.1-1.3,6.4-2,10.2-2c2.2,0,4.3,0.2,6.1,0.6c1.8,0.4,3.5,0.9,5,1.6c1.5,0.7,2.9,1.5,4.2,2.4
	c1.3,0.9,2.5,1.9,3.7,3.1L98,15.7c-1.9-1.8-4-3.3-6.2-4.4c-2.2-1.1-4.7-1.7-7.4-1.7c-2.3,0-4.5,0.5-6.4,1.4c-2,0.9-3.7,2.1-5.1,3.7
	c-1.4,1.6-2.6,3.4-3.3,5.5c-0.8,2.1-1.2,4.3-1.2,6.7c0,2.4,0.4,4.7,1.2,6.8c0.8,2.1,1.9,4,3.3,5.5c1.4,1.6,3.1,2.8,5.1,3.7
	c2,0.9,4.1,1.4,6.4,1.4c3,0,5.5-0.6,7.7-1.7c2.1-1.1,4.2-2.7,6.3-4.6l5.5,5.6C102.6,44.9,101.3,46.1,99.9,47.1"/>
<polygon fill="#002B4B" points="147.1,10.4 119.6,10.4 119.6,22.9 144,22.9 144,30.6 119.6,30.6 119.6,43.6 147.5,43.6 147.5,51.3 
	111.1,51.3 111.1,2.6 147.1,2.6 "/>
<polygon fill="#002B4B" points="189.9,2.6 198.4,2.6 198.4,51.3 191.2,51.3 164.4,16.7 164.4,51.3 155.9,51.3 155.9,2.6 163.9,2.6 
	189.9,36.3 "/>
<polygon fill="#002B4B" points="229.7,51.3 221.1,51.3 221.1,10.6 205.7,10.6 205.7,2.6 245.2,2.6 245.2,10.6 229.7,10.6 "/>
<path fill="#002B4B" d="M280.7,32.9c1.7-0.5,3.3-1.1,4.7-2c1.4-0.9,2.6-1.9,3.7-3.1c1-1.2,1.8-2.6,2.4-4.2c0.6-1.6,0.9-3.4,0.9-5.5
	c0-2.4-0.4-4.5-1.3-6.4c-0.8-1.9-2-3.5-3.6-4.9c-1.6-1.3-3.5-2.3-5.7-3.1c-2.2-0.7-4.8-1.1-7.5-1.1h-21.7v48.7h8.5v-17h10.7l12,17
	h10.1L280.7,32.9z M261,26.8V10.4h12.5c3.2,0,5.7,0.7,7.5,2.1c1.8,1.4,2.7,3.4,2.7,6.1c0,2.5-0.9,4.5-2.7,6
	c-1.8,1.5-4.3,2.2-7.3,2.2H261z"/>
<path fill="#002B4B" d="M329,17.9c0.3,0.7,0.9,1.3,1.8,1.9c0.9,0.6,2,1.2,3.6,1.7c1.5,0.5,3.4,1,5.8,1.6c2.6,0.6,4.8,1.4,6.8,2.2
	c2,0.8,3.6,1.8,4.9,2.9c1.3,1.1,2.3,2.5,3,4c0.7,1.5,1,3.3,1,5.3c0,2.3-0.4,4.4-1.3,6.2c-0.9,1.8-2,3.3-3.6,4.6
	c-1.5,1.3-3.3,2.2-5.5,2.9c-2.1,0.6-4.5,1-7,1c-3.8,0-7.4-0.6-10.8-1.9c-3.4-1.3-6.6-3.2-9.5-5.9l5.1-6.1c2.4,2,4.8,3.6,7.2,4.7
	c2.4,1.1,5.1,1.6,8.2,1.6c2.6,0,4.7-0.6,6.3-1.7c1.6-1.1,2.3-2.6,2.3-4.5c0-0.9-0.2-1.7-0.5-2.4c-0.3-0.7-0.9-1.3-1.7-1.9
	c-0.8-0.6-1.9-1.1-3.3-1.6c-1.4-0.5-3.3-1-5.5-1.6c-2.6-0.6-4.9-1.3-6.9-2c-2-0.7-3.7-1.7-5.1-2.8c-1.4-1.1-2.4-2.5-3.1-4
	c-0.7-1.6-1.1-3.5-1.1-5.8c0-2.1,0.4-4.1,1.2-5.8c0.8-1.7,2-3.2,3.4-4.5c1.4-1.3,3.2-2.2,5.2-2.9c2-0.7,4.3-1,6.7-1
	c3.6,0,6.8,0.5,9.6,1.6c2.9,1,5.5,2.6,8,4.6l-4.6,6.5c-2.2-1.6-4.4-2.9-6.6-3.7c-2.2-0.9-4.4-1.3-6.6-1.3c-2.5,0-4.5,0.6-5.8,1.7
	c-1.4,1.1-2.1,2.5-2.1,4.1C328.5,16.3,328.7,17.2,329,17.9"/>
<rect x="301.7" y="2.6" fill="#002B4B" width="8.6" height="48.7"/>
<g>
</g>
<g>
</g>
<g>
</g>
<g>
</g>
<g>
</g>
<g>
</g>
<g>
</g>
<g>
</g>
<g>
</g>
<g>
</g>
<g>
</g>
<g>
</g>
<g>
</g>
<g>
</g>
<g>
</g>
</svg>
